<?xml version="1.0" encoding="UTF-8" standalone="no"?>
<svg
   xmlns:dc="http://purl.org/dc/elements/1.1/"
   xmlns:cc="http://creativecommons.org/ns#"
   xmlns:rdf="http://www.w3.org/1999/02/22-rdf-syntax-ns#"
   xmlns:svg="http://www.w3.org/2000/svg"
   xmlns="http://www.w3.org/2000/svg"
   xmlns:xlink="http://www.w3.org/1999/xlink"
   xmlns:sodipodi="http://sodipodi.sourceforge.net/DTD/sodipodi-0.dtd"
   xmlns:inkscape="http://www.inkscape.org/namespaces/inkscape"
   version="1.1"
   id="svg66"
   width="640"
   height="615"
   viewBox="0 0 640 615"
   sodipodi:docname="BurgerLevel_2_SDL.svg"
   inkscape:version="1.0.2-2 (e86c870879, 2021-01-15)">
  <metadata
     id="metadata72">
    <rdf:RDF>
      <cc:Work
         rdf:about="">
        <dc:format>image/svg+xml</dc:format>
        <dc:type
           rdf:resource="http://purl.org/dc/dcmitype/StillImage" />
        <dc:title></dc:title>
      </cc:Work>
    </rdf:RDF>
  </metadata>
  <defs
     id="defs70" />
  <sodipodi:namedview
     pagecolor="#ffffff"
     bordercolor="#666666"
     borderopacity="1"
     objecttolerance="10"
     gridtolerance="10"
     guidetolerance="10"
     inkscape:pageopacity="0"
     inkscape:pageshadow="2"
     inkscape:window-width="1920"
     inkscape:window-height="1009"
     id="namedview68"
     showgrid="false"
     inkscape:zoom="1.332575"
     inkscape:cx="408.8127"
     inkscape:cy="328.14957"
     inkscape:window-x="-8"
     inkscape:window-y="-8"
     inkscape:window-maximized="1"
     inkscape:current-layer="g74" />
  <g
     inkscape:groupmode="layer"
     inkscape:label="Image"
     id="g74">
    <image
       sodipodi:absref="C:\_PROG_4\_Programming_4\BurgerTime_Sprites\Level_2_SDLREADY.png"
       xlink:href="Level_2_SDLREADY.png"
       id="image76"
       preserveAspectRatio="none"
       height="615"
       width="640" />
    <path
       style="fill:none;stroke:#000000;stroke-width:1px;stroke-linecap:butt;stroke-linejoin:miter;stroke-opacity:1"
       d="m 148.5845,211.62035 83.10977,-0.75042 0.18761,19.88631 -83.67259,0.56282 z"
       id="path78" />
    <path
       style="fill:none;stroke:#000000;stroke-width:1px;stroke-linecap:butt;stroke-linejoin:miter;stroke-opacity:1"
       d="m 262.64938,211.80796 -0.37522,20.07392 42.96194,-0.37522 -0.18761,-19.13588 z"
       id="path80" />
    <path
       style="fill:none;stroke:#000000;stroke-width:1px;stroke-linecap:butt;stroke-linejoin:miter;stroke-opacity:1"
       d="m 305.4237,83.48498 v 97.74309 l -156.8392,-0.18761 -1.50085,-98.493513 z"
       id="path82" />
    <path
       style="fill:none;stroke:#000000;stroke-width:1px;stroke-linecap:butt;stroke-linejoin:miter;stroke-opacity:1"
       d="m 336.56642,83.48498 -0.37522,98.30591 157.02681,0.18761 -0.18761,-97.9307 z"
       id="path84" />
    <path
       style="fill:none;stroke:#000000;stroke-width:1px;stroke-linecap:butt;stroke-linejoin:miter;stroke-opacity:1"
       d="m 307.29977,84.423014 h 27.20297 l 1.31325,-68.288838 -31.70553,-0.375213 z"
       id="path86" />
    <path
       style="fill:none;stroke:#000000;stroke-width:1px;stroke-linecap:butt;stroke-linejoin:miter;stroke-opacity:1"
       d="m 336.0036,210.1195 0.1876,70.35251 43.14954,0.18761 v -70.35251 z"
       id="path90" />
    <path
       style="fill:none;stroke:#000000;stroke-width:1px;stroke-linecap:butt;stroke-linejoin:miter;stroke-opacity:1"
       d="m 409.92063,210.49471 0.18761,69.9773 83.29737,-0.37521 -2.8141,-70.35251 z"
       id="path92" />
    <path
       style="fill:none;stroke:#000000;stroke-width:1px;stroke-linecap:butt;stroke-linejoin:miter;stroke-opacity:1"
       d="m 148.84224,260.80556 82.24794,-0.79594 0.26532,69.51277 -82.77858,0.53063 z"
       id="path94" />
    <path
       style="fill:none;stroke:#000000;stroke-width:1px;stroke-linecap:butt;stroke-linejoin:miter;stroke-opacity:1"
       d="m 262.39746,260.27493 42.71587,-0.53063 0.26531,70.30872 h -43.2465 z"
       id="path96" />
    <path
       style="fill:none;stroke:#000000;stroke-width:1px;stroke-linecap:butt;stroke-linejoin:miter;stroke-opacity:1"
       d="m 262.13214,378.34052 h 43.51182 V 357.9112 l -43.51182,0.53063 z"
       id="path98" />
    <path
       style="fill:none;stroke:#000000;stroke-width:1px;stroke-linecap:butt;stroke-linejoin:miter;stroke-opacity:1"
       d="m 231.88613,358.17651 0.26531,20.95996 L 0,378.60584 -0.26531594,359.76841 Z"
       id="path100" />
    <path
       style="fill:none;stroke:#000000;stroke-width:1px;stroke-linecap:butt;stroke-linejoin:miter;stroke-opacity:1"
       d="m 40.593338,407.79059 v 20.69465 l 42.981182,0.26531 -0.265316,-21.22527 z"
       id="path102" />
    <path
       style="fill:none;stroke:#000000;stroke-width:1px;stroke-linecap:butt;stroke-linejoin:miter;stroke-opacity:1"
       d="m 114.61648,429.01587 42.71587,-0.26532 0.53063,-20.69464 -43.51181,-0.26532 z"
       id="path106" />
    <path
       style="fill:none;stroke:#000000;stroke-width:1px;stroke-linecap:butt;stroke-linejoin:miter;stroke-opacity:1"
       d="m 187.84368,408.05591 0.53063,70.04341 42.98119,-0.26532 0.53063,-71.10467 z"
       id="path108" />
    <path
       style="fill:none;stroke:#000000;stroke-width:1px;stroke-linecap:butt;stroke-linejoin:miter;stroke-opacity:1"
       d="m 114.35117,456.07809 v 21.22528 h 43.2465 v -20.16401 z"
       id="path110" />
    <path
       style="fill:none;stroke:#000000;stroke-width:1px;stroke-linecap:butt;stroke-linejoin:miter;stroke-opacity:1"
       d="m 40.062706,456.60873 v 21.49059 l 43.246498,-0.26532 0.530632,-21.22527 z"
       id="path112" />
    <path
       style="fill:none;stroke:#000000;stroke-width:1px;stroke-linecap:butt;stroke-linejoin:miter;stroke-opacity:1"
       d="m 40.593338,506.22281 -0.265316,68.98214 42.981182,0.79595 1.061264,-69.77809 z"
       id="path114" />
    <path
       style="fill:none;stroke:#000000;stroke-width:1px;stroke-linecap:butt;stroke-linejoin:miter;stroke-opacity:1"
       d="m 114.61648,505.69217 43.77713,0.79595 v 69.51278 l -43.77713,0.26531 z"
       id="path116" />
    <path
       style="fill:none;stroke:#000000;stroke-width:1px;stroke-linecap:butt;stroke-linejoin:miter;stroke-opacity:1"
       d="m 188.109,505.69217 44.30776,0.26532 -0.53063,70.30872 -43.77713,-0.79595 z"
       id="path120" />
    <path
       style="fill:none;stroke:#000000;stroke-width:1px;stroke-linecap:butt;stroke-linejoin:miter;stroke-opacity:1"
       d="m 262.92809,575.47026 -0.26531,-69.51277 42.71586,-0.26532 0.79595,69.77809 z"
       id="path122" />
    <path
       style="fill:none;stroke:#000000;stroke-width:1px;stroke-linecap:butt;stroke-linejoin:miter;stroke-opacity:1"
       d="m 336.15529,554.77562 0.26532,20.69464 43.51181,0.53064 -0.53063,-21.22528 z"
       id="path124" />
    <path
       style="fill:none;stroke:#000000;stroke-width:1px;stroke-linecap:butt;stroke-linejoin:miter;stroke-opacity:1"
       d="m 409.91312,554.77562 0.26532,21.22528 44.30776,-0.53064 -0.53063,-20.69464 z"
       id="path126" />
    <path
       style="fill:none;stroke:#000000;stroke-width:1px;stroke-linecap:butt;stroke-linejoin:miter;stroke-opacity:1"
       d="m 261.60151,407.52528 43.77713,0.26531 -0.53063,70.30873 -43.2465,0.26531 z"
       id="path128" />
    <path
       style="fill:none;stroke:#000000;stroke-width:1px;stroke-linecap:butt;stroke-linejoin:miter;stroke-opacity:1"
       d="m 335.09403,407.79059 -0.26532,20.69465 44.30776,-0.26532 -0.53063,-21.22527 z"
       id="path130" />
    <path
       style="fill:none;stroke:#000000;stroke-width:1px;stroke-linecap:butt;stroke-linejoin:miter;stroke-opacity:1"
       d="m 335.88997,458.46594 0.26532,68.18619 h 42.98118 l 0.26532,-69.77809 z"
       id="path132" />
    <path
       style="fill:none;stroke:#000000;stroke-width:1px;stroke-linecap:butt;stroke-linejoin:miter;stroke-opacity:1"
       d="m 335.35934,309.09307 h 44.04245 l -0.53063,70.57403 -43.2465,-0.53063 z"
       id="path134" />
    <path
       style="fill:none;stroke:#000000;stroke-width:1px;stroke-linecap:butt;stroke-linejoin:miter;stroke-opacity:1"
       d="m 409.38249,407.25996 44.04244,-0.53063 -0.79594,21.75591 h -42.71587 z"
       id="path136" />
    <path
       style="fill:none;stroke:#000000;stroke-width:1px;stroke-linecap:butt;stroke-linejoin:miter;stroke-opacity:1"
       d="m 409.91312,526.91745 42.98118,0.26531 0.26532,-68.98214 h -44.30776 z"
       id="path138" />
    <path
       style="fill:none;stroke:#000000;stroke-width:1px;stroke-linecap:butt;stroke-linejoin:miter;stroke-opacity:1"
       d="m 483.67095,555.04094 v 20.42932 l 43.77713,0.53064 -0.53063,-20.69465 z"
       id="path140" />
    <path
       style="fill:none;stroke:#000000;stroke-width:1px;stroke-linecap:butt;stroke-linejoin:miter;stroke-opacity:1"
       d="m 482.875,506.22281 0.79595,19.89869 43.51181,-0.79595 0.26532,-20.16401 z"
       id="path142" />
    <path
       style="fill:none;stroke:#000000;stroke-width:1px;stroke-linecap:butt;stroke-linejoin:miter;stroke-opacity:1"
       d="m 556.63283,555.04094 v 20.69464 l 44.57308,0.26532 -0.26532,-21.49059 z"
       id="path144" />
    <path
       style="fill:none;stroke:#000000;stroke-width:1px;stroke-linecap:butt;stroke-linejoin:miter;stroke-opacity:1"
       d="m 556.89815,505.69217 v 20.95996 l 44.04244,-0.26531 -0.26531,-20.69465 z"
       id="path146" />
    <path
       style="fill:none;stroke:#000000;stroke-width:1px;stroke-linecap:butt;stroke-linejoin:miter;stroke-opacity:1"
       d="m 483.40564,407.79059 v 68.98215 l 43.51181,0.53063 0.26531,-69.77809 z"
       id="path148" />
    <path
       style="fill:none;stroke:#000000;stroke-width:1px;stroke-linecap:butt;stroke-linejoin:miter;stroke-opacity:1"
       d="m 557.6941,407.79059 0.26531,69.77809 42.71587,-1.06126 0.53063,-68.98214 z"
       id="path150" />
    <path
       style="fill:none;stroke:#000000;stroke-width:1px;stroke-linecap:butt;stroke-linejoin:miter;stroke-opacity:1"
       d="m 408.58654,311.21559 0.79595,67.65557 H 641.0033 l -1.06126,-100.02411 -148.57693,3.71442 -0.26531,26.5316 z"
       id="path152" />
    <path
       style="fill:none;stroke:#000000;stroke-width:1px;stroke-linecap:butt;stroke-linejoin:miter;stroke-opacity:1"
       d="m 147.64832,183.068 0.26531,26.66425 -0.39797,144.99516 L 0.26531594,355.52335 0,185.19052 Z"
       id="path154" />
    <path
       style="fill:none;stroke:#000000;stroke-width:1.00014px;stroke-linecap:butt;stroke-linejoin:miter;stroke-opacity:1"
       d="M 10.21435,289.45952 V 573.91644 L 1.3268616,572.83896 2.6338452,289.45952 Z"
       id="path156" />
    <path
       style="fill:none;stroke:#000000;stroke-width:1px;stroke-linecap:butt;stroke-linejoin:miter;stroke-opacity:1"
       d="m 631.71724,575.47026 -0.79594,-243.02939 7.95947,6.6329 0.26532,236.39649 z"
       id="path158" />
    <path
       style="fill:none;stroke:#000000;stroke-width:1px;stroke-linecap:butt;stroke-linejoin:miter;stroke-opacity:1"
       d="m 495.34485,147.25034 94.98311,0.53064"
       id="path160" />
    <path
       style="fill:none;stroke:#000000;stroke-width:1px;stroke-linecap:butt;stroke-linejoin:miter;stroke-opacity:1"
       d="m 345.97198,1.3265797 h 97.10563"
       id="path162" />
    <path
       style="fill:none;stroke:#000000;stroke-width:1px;stroke-linecap:butt;stroke-linejoin:miter;stroke-opacity:1"
       d="m 198.45632,1.3265797 96.84032,0.2653159"
       id="path164" />
    <path
       style="fill:none;stroke:#000000;stroke-width:1px;stroke-linecap:butt;stroke-linejoin:miter;stroke-opacity:1"
       d="m 50.410028,148.57692 95.248422,-0.26531"
       id="path166" />
    <path
       style="fill:none;stroke:#000000;stroke-width:1px;stroke-linecap:butt;stroke-linejoin:miter;stroke-opacity:1"
       d="M 640.02025,605.1254 0.75042679,604.46878 0.93803349,614.31813 640.02025,613.94292 Z"
       id="path168" />
    <path
       style="fill:none;stroke:#000000;stroke-width:1px;stroke-linecap:butt;stroke-linejoin:miter;stroke-opacity:1"
       d="m 638.14418,576.42158 0.37522,27.29677 1.21944,-0.0938 -0.46902,-27.20297 z"
       id="path170" />
    <path
       style="fill:none;stroke:#000000;stroke-width:1px;stroke-linecap:butt;stroke-linejoin:miter;stroke-opacity:1"
       d="m 1.7822636,574.54551 -0.28141,28.51622 h 1.7822636 l 0.093803,-28.79763 z"
       id="path172" />
    <path
       style="fill:none;stroke:#000000;stroke-width:1px;stroke-linecap:butt;stroke-linejoin:miter;stroke-opacity:1"
       d="m 496.00814,181.87407 v 30.11336 l 2.78582,0.26532 v -30.11336 z"
       id="path174" />
  </g>
</svg>
