<?xml version="1.0" encoding="UTF-8" standalone="no"?>
<svg
   xmlns:dc="http://purl.org/dc/elements/1.1/"
   xmlns:cc="http://creativecommons.org/ns#"
   xmlns:rdf="http://www.w3.org/1999/02/22-rdf-syntax-ns#"
   xmlns:svg="http://www.w3.org/2000/svg"
   xmlns="http://www.w3.org/2000/svg"
   xmlns:xlink="http://www.w3.org/1999/xlink"
   xmlns:sodipodi="http://sodipodi.sourceforge.net/DTD/sodipodi-0.dtd"
   xmlns:inkscape="http://www.inkscape.org/namespaces/inkscape"
   version="1.1"
   id="svg10"
   width="480"
   height="512"
   viewBox="0 0 480 512"
   sodipodi:docname="Level_1.svg"
   inkscape:version="1.0.2-2 (e86c870879, 2021-01-15)">
  <metadata
     id="metadata16">
    <rdf:RDF>
      <cc:Work
         rdf:about="">
        <dc:format>image/svg+xml</dc:format>
        <dc:type
           rdf:resource="http://purl.org/dc/dcmitype/StillImage" />
        <dc:title></dc:title>
      </cc:Work>
    </rdf:RDF>
  </metadata>
  <defs
     id="defs14" />
  <sodipodi:namedview
     pagecolor="#ffffff"
     bordercolor="#666666"
     borderopacity="1"
     objecttolerance="10"
     gridtolerance="10"
     guidetolerance="10"
     inkscape:pageopacity="0"
     inkscape:pageshadow="2"
     inkscape:window-width="1920"
     inkscape:window-height="1009"
     id="namedview12"
     showgrid="false"
     inkscape:zoom="1.1321094"
     inkscape:cx="404.97266"
     inkscape:cy="177.83294"
     inkscape:window-x="1912"
     inkscape:window-y="-8"
     inkscape:window-maximized="1"
     inkscape:current-layer="g18" />
  <g
     inkscape:groupmode="layer"
     inkscape:label="Image"
     id="g18">
    <image
       sodipodi:absref="C:\_PROG_4\_Programming_4\_Minigin_Retake\Project\Data\Tron\Level_1.png"
       xlink:href="Level_1.png"
       id="image20"
       preserveAspectRatio="none"
       height="512"
       width="480" />
    <path
       style="fill:none;stroke:#000000;stroke-width:0.997064px;stroke-linecap:butt;stroke-linejoin:miter;stroke-opacity:1"
       d="M 12.59123,15.866536 H 468.4457 V 9.9745124 L 11.965916,7.4936606 Z"
       id="path24" />
    <path
       style="fill:none;stroke:#000000;stroke-width:1px;stroke-linecap:butt;stroke-linejoin:miter;stroke-opacity:1"
       d="M 15.614806,4.0598497 15.927103,434.40391 4.996738,433.77932 5.3090342,4.0598497 Z"
       id="path26" />
    <path
       style="fill:none;stroke:#000000;stroke-width:1px;stroke-linecap:butt;stroke-linejoin:miter;stroke-opacity:1"
       d="m 13.272585,432.37399 457.201535,-0.62459 0.15615,3.9037 -457.669981,0.31229 z"
       id="path28" />
    <path
       style="fill:none;stroke:#000000;stroke-width:1px;stroke-linecap:butt;stroke-linejoin:miter;stroke-opacity:1"
       d="M 476.10239,433.262 H 464.6194 L 463.29444,4.8581876 475.21908,5.7414945 Z"
       id="path30" />
    <path
       style="fill:none;stroke:#000000;stroke-width:1px;stroke-linecap:butt;stroke-linejoin:miter;stroke-opacity:1"
       d="m 48.249752,433.77932 v -49.42086 h 15.380584 l -0.624592,49.65508 z"
       id="path34" />
    <path
       style="fill:none;stroke:#000000;stroke-width:1px;stroke-linecap:butt;stroke-linejoin:miter;stroke-opacity:1"
       d="m 96.655652,384.74883 94.625728,-0.15615 0.31229,14.67792 -94.938018,0.15615 z"
       id="path36" />
    <path
       style="fill:none;stroke:#000000;stroke-width:1px;stroke-linecap:butt;stroke-linejoin:miter;stroke-opacity:1"
       d="m 224.54092,384.59268 0.15614,14.83407 14.99022,0.15615 -0.15615,-14.99022 z"
       id="path38" />
    <path
       style="fill:none;stroke:#000000;stroke-width:1px;stroke-linecap:butt;stroke-linejoin:miter;stroke-opacity:1"
       d="m 48.4059,336.34293 0.312296,15.14636 14.677918,-0.15615 -0.156148,-14.83406 z"
       id="path40" />
    <path
       style="fill:none;stroke:#000000;stroke-width:1px;stroke-linecap:butt;stroke-linejoin:miter;stroke-opacity:1"
       d="m 96.655652,351.33314 -0.156148,-63.08381 h 15.458656 l -0.62459,63.39611 z"
       id="path42" />
    <path
       style="fill:none;stroke:#000000;stroke-width:1px;stroke-linecap:butt;stroke-linejoin:miter;stroke-opacity:1"
       d="m 158.80258,288.56162 -49.34279,0.62459 0.3123,14.83407 49.34279,-0.62459 z"
       id="path44" />
    <path
       style="fill:none;stroke:#000000;stroke-width:1px;stroke-linecap:butt;stroke-linejoin:miter;stroke-opacity:1"
       d="m 192.21827,288.40547 0.15614,14.99022 47.15672,0.15615 0.15615,-15.14637 z"
       id="path46" />
    <path
       style="fill:none;stroke:#000000;stroke-width:1px;stroke-linecap:butt;stroke-linejoin:miter;stroke-opacity:1"
       d="m 144.28081,336.49908 v 15.14636 h 15.61481 l -0.46845,-15.45866 z"
       id="path48" />
    <path
       style="fill:none;stroke:#000000;stroke-width:1px;stroke-linecap:butt;stroke-linejoin:miter;stroke-opacity:1"
       d="m 192.37441,336.65523 0.15615,15.14636 47.31287,-0.15615 -0.6246,-15.30251 z"
       id="path50" />
    <path
       style="fill:none;stroke:#000000;stroke-width:1px;stroke-linecap:butt;stroke-linejoin:miter;stroke-opacity:1"
       d="m 272.32222,384.59268 14.99022,-0.15615 0.15615,14.99022 -15.14637,0.15615 z"
       id="path52" />
    <path
       style="fill:none;stroke:#000000;stroke-width:1px;stroke-linecap:butt;stroke-linejoin:miter;stroke-opacity:1"
       d="m 272.63452,351.33314 -0.3123,-14.67791 h 15.14637 v 14.83406 z"
       id="path54" />
    <path
       style="fill:none;stroke:#000000;stroke-width:1px;stroke-linecap:butt;stroke-linejoin:miter;stroke-opacity:1"
       d="m 320.41583,336.34293 0.31229,63.23997 h 15.14637 l -0.6246,-63.55227 z"
       id="path56" />
    <path
       style="fill:none;stroke:#000000;stroke-width:1px;stroke-linecap:butt;stroke-linejoin:miter;stroke-opacity:1"
       d="m 332.59538,384.12424 50.90427,-0.15615 0.15614,15.61481 -50.27967,0.46844 z"
       id="path58" />
    <path
       style="fill:none;stroke:#000000;stroke-width:1px;stroke-linecap:butt;stroke-linejoin:miter;stroke-opacity:1"
       d="m 416.29074,368.35328 0.15615,31.54191 h 15.30251 l 0.15615,-31.38576 z"
       id="path62" />
    <path
       style="fill:none;stroke:#000000;stroke-width:1px;stroke-linecap:butt;stroke-linejoin:miter;stroke-opacity:1"
       d="m 416.13459,288.24933 0.3123,47.31286 h 15.14636 l -0.15615,-47.15672 z"
       id="path64" />
    <path
       style="fill:none;stroke:#000000;stroke-width:1px;stroke-linecap:butt;stroke-linejoin:miter;stroke-opacity:1"
       d="m 368.66558,288.56162 v 14.67792 l 14.99021,0.15615 -0.15614,-15.14636 z"
       id="path66" />
    <path
       style="fill:none;stroke:#000000;stroke-width:1px;stroke-linecap:butt;stroke-linejoin:miter;stroke-opacity:1"
       d="m 320.25968,288.56162 0.15615,15.30251 15.45866,-0.15615 -0.3123,-15.45865 z"
       id="path70" />
    <path
       style="fill:none;stroke:#000000;stroke-width:1px;stroke-linecap:butt;stroke-linejoin:miter;stroke-opacity:1"
       d="m 272.47837,288.56162 0.15615,15.30251 h 15.30251 l -0.46844,-15.30251 z"
       id="path72" />
    <path
       style="fill:none;stroke:#000000;stroke-width:1px;stroke-linecap:butt;stroke-linejoin:miter;stroke-opacity:1"
       d="m 416.44689,192.53056 14.99021,-0.15615 0.15615,62.92767 -14.83407,-0.15614 z"
       id="path74" />
    <path
       style="fill:none;stroke:#000000;stroke-width:1px;stroke-linecap:butt;stroke-linejoin:miter;stroke-opacity:1"
       d="m 368.35328,192.21827 15.14637,0.15614 v 15.14637 h -14.67792 z"
       id="path76" />
    <path
       style="fill:none;stroke:#000000;stroke-width:1px;stroke-linecap:butt;stroke-linejoin:miter;stroke-opacity:1"
       d="m 368.19714,240.62417 h 15.14636 l 0.31229,14.83406 h -14.99021 z"
       id="path78" />
    <path
       style="fill:none;stroke:#000000;stroke-width:1px;stroke-linecap:butt;stroke-linejoin:miter;stroke-opacity:1"
       d="m 320.57198,255.61438 15.30251,0.15615 -0.6246,-63.23997 h -15.14636 z"
       id="path80" />
    <path
       style="fill:none;stroke:#000000;stroke-width:1px;stroke-linecap:butt;stroke-linejoin:miter;stroke-opacity:1"
       d="m 256.08283,240.46802 31.38576,0.31229 0.15614,14.83407 -31.22961,-0.15615 z"
       id="path82" />
    <path
       style="fill:none;stroke:#000000;stroke-width:1px;stroke-linecap:butt;stroke-linejoin:miter;stroke-opacity:1"
       d="m 256.08283,207.67693 31.5419,0.15614 -0.15614,-15.30251 -31.22962,-0.31229 z"
       id="path84" />
    <path
       style="fill:none;stroke:#000000;stroke-width:1px;stroke-linecap:butt;stroke-linejoin:miter;stroke-opacity:1"
       d="m 272.16608,205.3347 v 37.31939 l 15.45865,0.15615 v -37.63168 z"
       id="path86" />
    <path
       style="fill:none;stroke:#000000;stroke-width:1px;stroke-linecap:butt;stroke-linejoin:miter;stroke-opacity:1"
       d="m 192.34006,192.78172 h 31.3574 l 0.44165,15.45787 -31.57822,-0.44166 z"
       id="path88" />
    <path
       style="fill:none;stroke:#000000;stroke-width:1px;stroke-linecap:butt;stroke-linejoin:miter;stroke-opacity:1"
       d="m 192.78172,241.14277 30.91574,-0.88331 v 15.45787 l -31.3574,-0.88331 z"
       id="path90" />
    <path
       style="fill:none;stroke:#000000;stroke-width:1px;stroke-linecap:butt;stroke-linejoin:miter;stroke-opacity:1"
       d="m 192.78172,204.70636 -0.22083,39.52798 15.6787,-0.22083 -0.22083,-39.30715 z"
       id="path92" />
    <path
       style="fill:none;stroke:#000000;stroke-width:1px;stroke-linecap:butt;stroke-linejoin:miter;stroke-opacity:1"
       d="m 143.53736,192.34006 16.12035,0.22083 0.66248,63.37727 h -16.34118 z"
       id="path94" />
    <path
       style="fill:none;stroke:#000000;stroke-width:1px;stroke-linecap:butt;stroke-linejoin:miter;stroke-opacity:1"
       d="m 95.838792,240.25946 15.678698,-0.22083 0.22083,16.12035 -15.678701,-0.22082 z"
       id="path96" />
    <path
       style="fill:none;stroke:#000000;stroke-width:1px;stroke-linecap:butt;stroke-linejoin:miter;stroke-opacity:1"
       d="m 47.919396,240.03863 15.237043,0.22083 0.441653,63.81892 -15.678696,-0.22083 z"
       id="path98" />
    <path
       style="fill:none;stroke:#000000;stroke-width:1px;stroke-linecap:butt;stroke-linejoin:miter;stroke-opacity:1"
       d="m 47.919396,191.89841 v 15.89952 h 16.341177 l -0.883307,-15.23704 z"
       id="path100" />
    <path
       style="fill:none;stroke:#000000;stroke-width:1px;stroke-linecap:butt;stroke-linejoin:miter;stroke-opacity:1"
       d="m 48.361049,144.19984 -0.220826,15.6787 15.678696,0.22082 -0.220827,-15.45787 z"
       id="path102" />
    <path
       style="fill:none;stroke:#000000;stroke-width:1px;stroke-linecap:butt;stroke-linejoin:miter;stroke-opacity:1"
       d="m 96.501272,207.79793 -0.883307,-63.81892 h 16.562005 l -0.22083,64.26058 z"
       id="path104" />
    <path
       style="fill:none;stroke:#000000;stroke-width:1px;stroke-linecap:butt;stroke-linejoin:miter;stroke-opacity:1"
       d="m 108.20509,144.42067 51.67345,-0.44166 -0.22083,15.6787 -50.56932,0.44165 z"
       id="path106" />
    <path
       style="fill:none;stroke:#000000;stroke-width:1px;stroke-linecap:butt;stroke-linejoin:miter;stroke-opacity:1"
       d="M 48.361049,112.17997 64.260573,111.73832 63.598092,48.140223 47.698569,47.919396 Z"
       id="path108" />
    <path
       style="fill:none;stroke:#000000;stroke-width:1px;stroke-linecap:butt;stroke-linejoin:miter;stroke-opacity:1"
       d="m 60.064865,47.698569 99.592845,0.66248 0.22083,15.45787 H 60.285692 Z"
       id="path110" />
    <path
       style="fill:none;stroke:#000000;stroke-width:1px;stroke-linecap:butt;stroke-linejoin:miter;stroke-opacity:1"
       d="m 96.501272,96.722099 v 15.237041 l 15.016218,-0.44165 V 96.722099 Z"
       id="path112" />
    <path
       style="fill:none;stroke:#000000;stroke-width:1px;stroke-linecap:butt;stroke-linejoin:miter;stroke-opacity:1"
       d="m 144.42067,96.059619 v 15.899521 l 15.45787,-0.22082 -0.22083,-15.899528 z"
       id="path114" />
    <path
       style="fill:none;stroke:#000000;stroke-width:1px;stroke-linecap:butt;stroke-linejoin:miter;stroke-opacity:1"
       d="m 192.11924,48.140223 h 47.91939 l -0.22082,15.678696 -47.9194,-0.441653 z"
       id="path116" />
    <path
       style="fill:none;stroke:#000000;stroke-width:1px;stroke-linecap:butt;stroke-linejoin:miter;stroke-opacity:1"
       d="m 192.34006,96.501272 47.03609,-0.220826 0.44166,15.237044 -47.69857,0.22083 z"
       id="path118" />
    <path
       style="fill:none;stroke:#000000;stroke-width:1px;stroke-linecap:butt;stroke-linejoin:miter;stroke-opacity:1"
       d="m 272.50016,48.140223 0.22083,15.678696 31.35739,-0.220827 -0.44165,-15.016216 z"
       id="path120" />
    <path
       style="fill:none;stroke:#000000;stroke-width:1px;stroke-linecap:butt;stroke-linejoin:miter;stroke-opacity:1"
       d="m 191.89841,143.97901 h 47.9194 l 0.22082,15.89953 -47.69857,0.22082 z"
       id="path122" />
    <path
       style="fill:none;stroke:#000000;stroke-width:1px;stroke-linecap:butt;stroke-linejoin:miter;stroke-opacity:1"
       d="m 271.61685,144.19984 16.34118,-0.44165 -0.44165,15.67869 h -15.45787 z"
       id="path124" />
    <path
       style="fill:none;stroke:#000000;stroke-width:1px;stroke-linecap:butt;stroke-linejoin:miter;stroke-opacity:1"
       d="m 272.27933,96.280446 63.81892,-0.220827 v 15.899521 l -63.81892,-0.22082 z"
       id="path126" />
    <path
       style="fill:none;stroke:#000000;stroke-width:1px;stroke-linecap:butt;stroke-linejoin:miter;stroke-opacity:1"
       d="m 367.67647,96.280446 1.32496,15.457874 15.23705,0.22082 -0.88331,-15.899521 z"
       id="path128" />
    <path
       style="fill:none;stroke:#000000;stroke-width:1px;stroke-linecap:butt;stroke-linejoin:miter;stroke-opacity:1"
       d="m 319.75708,144.64149 15.67869,-0.22082 0.88331,15.67869 H 319.9779 Z"
       id="path130" />
    <path
       style="fill:none;stroke:#000000;stroke-width:1px;stroke-linecap:butt;stroke-linejoin:miter;stroke-opacity:1"
       d="m 416.03752,47.919396 50.34849,-0.220827 -0.44165,15.899523 h -49.68601 z"
       id="path132" />
    <path
       style="fill:none;stroke:#000000;stroke-width:1px;stroke-linecap:butt;stroke-linejoin:miter;stroke-opacity:1"
       d="m 416.03752,96.059619 15.89952,0.220827 0.22083,63.598094 -15.01622,0.22082 z"
       id="path134" />
    <path
       style="fill:none;stroke:#000000;stroke-width:1px;stroke-linecap:butt;stroke-linejoin:miter;stroke-opacity:1"
       d="m 367.8973,144.19984 h 54.32337 l 0.88331,15.6787 -54.76503,0.22082 z"
       id="path136" />
    <path
       style="fill:none;stroke:#000000;stroke-width:1px;stroke-linecap:butt;stroke-linejoin:miter;stroke-opacity:1"
       d="m 336.09825,47.919396 47.9194,0.220827 v 15.899523 l -47.47774,0.220827 z"
       id="path138" />
    <path
       style="fill:none;stroke:#000000;stroke-width:1px;stroke-linecap:butt;stroke-linejoin:miter;stroke-opacity:1"
       d="m 367.67647,335.87743 16.12035,0.44165 0.22083,15.89952 -15.89952,-0.44165 z"
       id="path140" />
  </g>
</svg>
